a7c7fb1e53b1758096f11974ca93cdf7 *tests/data/fate/spdif-mp3-remux.spdif
184320 tests/data/fate/spdif-mp3-remux.spdif
#tb 0: 1/90000
#media_type 0: audio
#codec_id 0: mp3
#sample_rate 0: 44100
#channel_layout_name 0: mono
0,          0,          0,     2351,      418, 0x64d1b620
0,       2351,       2351,     2351,      418, 0x04edc6dd
0,       4702,       4702,     2351,      418, 0x2f1ac32b
0,       7053,       7053,     2351,      418, 0xa5ebce7b
0,       9404,       9404,     2351,      418, 0xa4e1d8b5
0,      11755,      11755,     2351,      418, 0xf927d670
0,      14106,      14106,     2351,      418, 0x4e8ccae5
0,      16457,      16457,     2351,      418, 0x2b0ad5c2
0,      18808,      18808,     2351,      418, 0x4a2fcc63
0,      21159,      21159,     2351,      418, 0xe945dbc7
0,      23510,      23510,     2351,      418, 0x601cd144
0,      25861,      25861,     2351,      418, 0x052dc6a9
0,      28212,      28212,     2351,      418, 0x348bd06b
0,      30563,      30563,     2351,      418, 0x2996d2bd
0,      32914,      32914,     2351,      418, 0xf658cc71
0,      35265,      35265,     2351,      418, 0xeb19d2bf
0,      37616,      37616,     2351,      418, 0xd547d84e
0,      39967,      39967,     2351,      418, 0x4a59d73f
0,      42318,      42318,     2351,      418, 0xedbcd9bf
0,      44669,      44669,     2351,      418, 0x36c1d5fb
0,      47020,      47020,     2351,      418, 0x30ddcf11
0,      49371,      49371,     2351,      418, 0xc1c6d2de
0,      51722,      51722,     2351,      418, 0xeed0cfc8
0,      54073,      54073,     2351,      418, 0xe7bfde05
0,      56424,      56424,     2351,      418, 0x3bbec91f
0,      58775,      58775,     2351,      418, 0x4f76cc86
0,      61126,      61126,     2351,      418, 0x9819cdd2
0,      63477,      63477,     2351,      418, 0x2cddd971
0,      65828,      65828,     2351,      418, 0x2b84d6f8
0,      68179,      68179,     2351,      418, 0xe483ce32
0,      70530,      70530,     2351,      418, 0x68add0b0
0,      72881,      72881,     2351,      418, 0xddd6d0bf
0,      75232,      75232,     2351,      418, 0x00c7d8aa
0,      77583,      77583,     2351,      418, 0x915fd36c
0,      79934,      79934,     2351,      418, 0x28d2d73c
0,      82285,      82285,     2351,      418, 0xaa7ad8b4
0,      84636,      84636,     2351,      418, 0xe4e6d680
0,      86987,      86987,     2351,      418, 0x4084d578
0,      89338,      89338,     2351,      418, 0x3ab4b6e7
0,      91689,      91689,     2351,      418, 0x951b66f9
